<svg xmlns="http://www.w3.org/2000/svg" xmlns:xlink="http://www.w3.org/1999/xlink" width="73cm" height="29cm" viewBox="52 53 1459 566"><g><rect width="231" height="81" x="53" y="139" fill="#fff"/><rect width="231" height="81" x="53" y="139" fill="none" fill-opacity="0" stroke="#000" stroke-width="2"/><text x="168.5" y="183.4" fill="#000" font-family="sanserif" font-size="12.8" font-style="normal" font-weight="normal" text-anchor="middle"><tspan x="168.5" y="183.4">Linux Kernel</tspan></text></g><g><rect width="603.203" height="297" x="510" y="54" fill="#fff"/><rect width="603.203" height="297" x="510" y="54" fill="none" fill-opacity="0" stroke="#000" stroke-width="2"/></g><g><line x1="285.009" x2="496.771" y1="183.667" y2="191.24" fill="none" fill-opacity="0" stroke="#000" stroke-width="2"/><polygon fill="#fff" points="496.593 196.237 506.765 191.598 496.95 186.244"/><polygon fill="none" fill-opacity="0" stroke="#000" stroke-width="2" points="496.593 196.237 506.765 191.598 496.95 186.244"/></g><text x="338" y="115" fill="#000" font-family="sanserif" font-size="12.8" font-style="normal" font-weight="normal" text-anchor="start"><tspan x="338" y="115">Collect informations:</tspan> <tspan x="338" y="131">- proc</tspan> <tspan x="338" y="147">- netlink</tspan> <tspan x="338" y="163">- (audit)</tspan></text><g><rect width="291" height="190" x="516" y="107" fill="#fff"/><rect width="291" height="190" x="516" y="107" fill="none" fill-opacity="0" stroke="#000" stroke-width="2"/><text x="661.5" y="173.9" fill="#000" font-family="sanserif" font-size="12.8" font-style="normal" font-weight="normal" text-anchor="middle"><tspan x="661.5" y="173.9">Core:</tspan> <tspan x="661.5" y="189.9">- process tree</tspan> <tspan x="661.5" y="205.9">- process tagging</tspan> <tspan x="661.5" y="221.9">- process manipulation</tspan> <tspan x="661.5" y="237.9">-...</tspan></text></g><g><rect width="359.203" height="79" x="677" y="267" fill="#fff"/><rect width="359.203" height="79" x="677" y="267" fill="none" fill-opacity="0" stroke="#000" stroke-width="2"/><text x="856.601" y="302.4" fill="#000" font-family="sanserif" font-size="12.8" font-style="normal" font-weight="normal" text-anchor="middle"><tspan x="856.601" y="302.4">Scheduler</tspan> <tspan x="856.601" y="318.4">Lua / Module</tspan></text></g><g><path fill="none" fill-opacity="0" stroke="#000" stroke-width="2" d="M 198.557,231.221 A 436.297,436.297 0 0 0 806.481,346.563"/><polygon fill="#fff" points="202.633 228.631 193.044 222.882 194.198 234.002"/><polygon fill="none" fill-opacity="0" stroke="#000" stroke-width="2" points="202.633 228.631 193.044 222.882 194.198 234.002"/></g><g><rect width="360" height="81" x="675.203" y="57" fill="#fff"/><rect width="360" height="81" x="675.203" y="57" fill="none" fill-opacity="0" stroke="#000" stroke-width="2"/><text x="855.203" y="93.4" fill="#000" font-family="sanserif" font-size="12.8" font-style="normal" font-weight="normal" text-anchor="middle"><tspan x="855.203" y="93.4">Rules</tspan> <tspan x="855.203" y="109.4">Lua / Modules</tspan></text></g><g><path fill="none" fill-opacity="0" stroke="#000" stroke-width="2" d="M 664.782,60.4905 A 223.041,223.041 0 0 0 596.972,99.7082"/><path fill="none" fill-opacity="0" stroke="#000" stroke-width="2" d="M 589.729,99.2531 A 5,5 0 0 0 596.55,106.566"/><line x1="596.797" x2="589.482" y1="99.501" y2="106.318" fill="none" fill-opacity="0" stroke="#000" stroke-width="2"/><path fill="none" fill-opacity="0" stroke="#000" stroke-width="2" d="M 670.94,63.5436 A 5,5 0 0 0 667.997,53.9864"/><line x1="664.689" x2="674.247" y1="60.236" y2="57.294" fill="none" fill-opacity="0" stroke="#000" stroke-width="2"/></g><g><path fill="none" fill-opacity="0" stroke="#000" stroke-width="2" d="M 596.546,304.735 A 166.698,166.698 0 0 0 666.313,343.473"/><path fill="none" fill-opacity="0" stroke="#000" stroke-width="2" d="M 596.506,297.934 A 5,5 0 0 0 589.229,304.794"/><line x1="596.299" x2="589.436" y1="305.001" y2="297.728" fill="none" fill-opacity="0" stroke="#000" stroke-width="2"/><path fill="none" fill-opacity="0" stroke="#000" stroke-width="2" d="M 670.128,349.713 A 5,5 0 0 0 672.109,339.912"/><line x1="666.218" x2="676.02" y1="343.823" y2="345.802" fill="none" fill-opacity="0" stroke="#000" stroke-width="2"/></g><text x="615.936" y="75" fill="#000" font-family="sanserif" font-size="12.8" font-style="normal" font-weight="normal" text-anchor="start"><tspan x="615.936" y="75">Lua</tspan> <tspan x="615.936" y="91">Bindings</tspan></text><text x="518.936" y="441.001" fill="#000" font-family="sanserif" font-size="12.8" font-style="normal" font-weight="normal" text-anchor="start"><tspan x="518.936" y="441.001">Kernel optimization:</tspan> <tspan x="518.936" y="457.001">- cgroups</tspan> <tspan x="518.936" y="473.001">- nice</tspan> <tspan x="518.936" y="489.001">- ionice</tspan></text><g><rect width="267" height="142" x="804.153" y="463.154" fill="#fff"/><rect width="267" height="142" x="804.153" y="463.154" fill="none" fill-opacity="0" stroke="#000" stroke-width="2"/><text x="937.653" y="538.054" fill="#000" font-family="sanserif" font-size="12.8" font-style="normal" font-weight="normal" text-anchor="middle"><tspan x="937.653" y="538.054">Userspace</tspan></text></g><text x="572.703" y="322.007" fill="#000" font-family="sanserif" font-size="12.8" font-style="normal" font-weight="normal" text-anchor="start"><tspan x="572.703" y="322.007">Lua</tspan> <tspan x="572.703" y="338.007">Bindings</tspan></text><text x="515.203" y="69" fill="#000" font-family="sanserif" font-size="15.229" font-style="normal" font-weight="700" text-anchor="start"><tspan x="515.203" y="69">ulatencyd</tspan></text><g><rect width="185" height="119" x="849.203" y="143" fill="#fff"/><rect width="185" height="119" x="849.203" y="143" fill="none" fill-opacity="0" stroke="#000" stroke-width="2"/><text x="941.703" y="182.4" fill="#000" font-family="sanserif" font-size="12.8" font-style="normal" font-weight="normal" text-anchor="middle"><tspan x="941.703" y="182.4">Modules</tspan> <tspan x="941.703" y="198.4">- dbus</tspan> <tspan x="941.703" y="214.4">- xserver observation</tspan> <tspan x="941.703" y="230.4">-...</tspan></text></g><g><line x1="811.472" x2="844.731" y1="202.053" y2="202.447" fill="none" fill-opacity="0" stroke="#000" stroke-width="2"/><polyline fill="none" fill-opacity="0" stroke="#000" stroke-width="2" points="819.294 197.146 809.236 202.027 819.176 207.145"/><polyline fill="none" fill-opacity="0" stroke="#000" stroke-width="2" points="836.908 207.355 846.967 202.474 837.027 197.356"/></g><g><path fill="none" fill-opacity="0" stroke="#000" stroke-width="2" d="M 1076.5,555.777 A 179.386,179.386 0 0 0 1038.67,202.599"/><polyline fill="none" fill-opacity="0" stroke="#000" stroke-width="2" points="1046.49 197.618 1036.44 202.522 1046.39 207.618"/><polyline fill="none" fill-opacity="0" stroke="#000" stroke-width="2" points="1082.98 549.238 1074.34 556.326 1085.19 558.99"/></g><g><path fill="none" fill-opacity="0" stroke="#000" stroke-width="2" d="M 175.191,221.004 A 496.606,496.606 0 0 0 791.381,600.659"/><polygon fill="#fff" points="792.845 605.597 801.006 597.956 789.996 596.012"/><polygon fill="none" fill-opacity="0" stroke="#000" stroke-width="2" points="792.845 605.597 801.006 597.956 789.996 596.012"/></g><text x="408.3" y="541.746" fill="#000" font-family="sanserif" font-size="21.663" font-style="normal" font-weight="normal" text-anchor="start"><tspan x="408.3" y="541.746">Effect</tspan></text><text x="1223.86" y="372.895" fill="#000" font-family="sanserif" font-size="12.8" font-style="normal" font-weight="normal" text-anchor="start"><tspan x="1223.86" y="372.895">- information receival</tspan> <tspan x="1223.86" y="388.895">- interface for user wishes</tspan> <tspan x="1223.86" y="404.895">- interaction with other daemons like upstart</tspan></text></svg>